<mxfile host="app.diagrams.net" modified="2022-08-22T02:14:35.139Z" agent="5.0 (Macintosh; Intel Mac OS X 10_15_7) AppleWebKit/605.1.15 (KHTML, like Gecko) Version/15.1 Safari/605.1.15" etag="V74yZ7qQmNrvq1-Coanz" version="20.2.5" type="github">
  <diagram id="7zGJfm4-ipzApq-UuQ5n" name="Page-1">
    <mxGraphModel dx="988" dy="538" grid="0" gridSize="10" guides="1" tooltips="1" connect="1" arrows="1" fold="1" page="1" pageScale="1" pageWidth="850" pageHeight="1100" math="0" shadow="0">
      <root>
        <mxCell id="0" />
        <mxCell id="1" parent="0" />
        <mxCell id="1VvAbX1WwTx6JGBW-Ev7-2" value="" style="endArrow=classic;html=1;rounded=0;" edge="1" parent="1">
          <mxGeometry width="50" height="50" relative="1" as="geometry">
            <mxPoint x="80" y="80" as="sourcePoint" />
            <mxPoint x="80" y="131" as="targetPoint" />
          </mxGeometry>
        </mxCell>
        <mxCell id="1VvAbX1WwTx6JGBW-Ev7-3" value="" style="endArrow=classic;html=1;rounded=0;" edge="1" parent="1">
          <mxGeometry width="50" height="50" relative="1" as="geometry">
            <mxPoint x="120" y="80" as="sourcePoint" />
            <mxPoint x="119.5" y="140" as="targetPoint" />
          </mxGeometry>
        </mxCell>
        <mxCell id="1VvAbX1WwTx6JGBW-Ev7-4" value="" style="endArrow=classic;html=1;rounded=0;" edge="1" parent="1">
          <mxGeometry width="50" height="50" relative="1" as="geometry">
            <mxPoint x="160" y="80" as="sourcePoint" />
            <mxPoint x="160" y="150" as="targetPoint" />
          </mxGeometry>
        </mxCell>
        <mxCell id="1VvAbX1WwTx6JGBW-Ev7-5" value="req1" style="text;html=1;align=center;verticalAlign=middle;resizable=0;points=[];autosize=1;strokeColor=none;fillColor=none;" vertex="1" parent="1">
          <mxGeometry x="136" y="50" width="50" height="30" as="geometry" />
        </mxCell>
        <mxCell id="1VvAbX1WwTx6JGBW-Ev7-6" value="req2" style="text;html=1;align=center;verticalAlign=middle;resizable=0;points=[];autosize=1;strokeColor=none;fillColor=none;" vertex="1" parent="1">
          <mxGeometry x="96" y="50" width="50" height="30" as="geometry" />
        </mxCell>
        <mxCell id="1VvAbX1WwTx6JGBW-Ev7-7" value="req3" style="text;html=1;align=center;verticalAlign=middle;resizable=0;points=[];autosize=1;strokeColor=none;fillColor=none;" vertex="1" parent="1">
          <mxGeometry x="56" y="50" width="50" height="30" as="geometry" />
        </mxCell>
        <mxCell id="1VvAbX1WwTx6JGBW-Ev7-9" value="" style="shape=singleArrow;whiteSpace=wrap;html=1;" vertex="1" parent="1">
          <mxGeometry x="220" y="110" width="70" height="20" as="geometry" />
        </mxCell>
        <mxCell id="1VvAbX1WwTx6JGBW-Ev7-12" value="" style="endArrow=classic;html=1;rounded=0;" edge="1" parent="1">
          <mxGeometry width="50" height="50" relative="1" as="geometry">
            <mxPoint x="400" y="80" as="sourcePoint" />
            <mxPoint x="399.66" y="160" as="targetPoint" />
          </mxGeometry>
        </mxCell>
        <mxCell id="1VvAbX1WwTx6JGBW-Ev7-13" value="" style="endArrow=classic;html=1;rounded=0;" edge="1" parent="1">
          <mxGeometry width="50" height="50" relative="1" as="geometry">
            <mxPoint x="440" y="80" as="sourcePoint" />
            <mxPoint x="439.66" y="160" as="targetPoint" />
          </mxGeometry>
        </mxCell>
        <mxCell id="1VvAbX1WwTx6JGBW-Ev7-14" value="" style="endArrow=classic;html=1;rounded=0;" edge="1" parent="1">
          <mxGeometry width="50" height="50" relative="1" as="geometry">
            <mxPoint x="480" y="80" as="sourcePoint" />
            <mxPoint x="480" y="160" as="targetPoint" />
          </mxGeometry>
        </mxCell>
        <mxCell id="1VvAbX1WwTx6JGBW-Ev7-15" value="req1" style="text;html=1;align=center;verticalAlign=middle;resizable=0;points=[];autosize=1;strokeColor=none;fillColor=none;" vertex="1" parent="1">
          <mxGeometry x="455" y="50" width="50" height="30" as="geometry" />
        </mxCell>
        <mxCell id="1VvAbX1WwTx6JGBW-Ev7-16" value="req2" style="text;html=1;align=center;verticalAlign=middle;resizable=0;points=[];autosize=1;strokeColor=none;fillColor=none;" vertex="1" parent="1">
          <mxGeometry x="415" y="50" width="50" height="30" as="geometry" />
        </mxCell>
        <mxCell id="1VvAbX1WwTx6JGBW-Ev7-17" value="req3" style="text;html=1;align=center;verticalAlign=middle;resizable=0;points=[];autosize=1;strokeColor=none;fillColor=none;" vertex="1" parent="1">
          <mxGeometry x="375" y="50" width="50" height="30" as="geometry" />
        </mxCell>
        <mxCell id="1VvAbX1WwTx6JGBW-Ev7-18" value="" style="endArrow=classic;html=1;rounded=0;exitX=0.833;exitY=0.033;exitDx=0;exitDy=0;exitPerimeter=0;strokeColor=#00994D;" edge="1" parent="1">
          <mxGeometry width="50" height="50" relative="1" as="geometry">
            <mxPoint x="479.96000000000004" y="161.98000000000002" as="sourcePoint" />
            <mxPoint x="480" y="260" as="targetPoint" />
          </mxGeometry>
        </mxCell>
        <mxCell id="1VvAbX1WwTx6JGBW-Ev7-20" value="" style="endArrow=none;html=1;rounded=0;" edge="1" parent="1">
          <mxGeometry width="50" height="50" relative="1" as="geometry">
            <mxPoint x="40" y="160" as="sourcePoint" />
            <mxPoint x="200" y="160" as="targetPoint" />
          </mxGeometry>
        </mxCell>
        <mxCell id="1VvAbX1WwTx6JGBW-Ev7-21" value="VR" style="text;html=1;align=center;verticalAlign=middle;resizable=0;points=[];autosize=1;strokeColor=none;fillColor=none;" vertex="1" parent="1">
          <mxGeometry x="20" y="160" width="40" height="30" as="geometry" />
        </mxCell>
        <mxCell id="1VvAbX1WwTx6JGBW-Ev7-29" value="" style="endArrow=none;html=1;rounded=0;" edge="1" parent="1">
          <mxGeometry width="50" height="50" relative="1" as="geometry">
            <mxPoint x="360" y="160" as="sourcePoint" />
            <mxPoint x="520" y="160" as="targetPoint" />
          </mxGeometry>
        </mxCell>
        <mxCell id="1VvAbX1WwTx6JGBW-Ev7-30" value="VR" style="text;html=1;align=center;verticalAlign=middle;resizable=0;points=[];autosize=1;strokeColor=none;fillColor=none;" vertex="1" parent="1">
          <mxGeometry x="340" y="160" width="40" height="30" as="geometry" />
        </mxCell>
        <mxCell id="1VvAbX1WwTx6JGBW-Ev7-31" value="&lt;font style=&quot;font-size: 10px;&quot;&gt;handle&lt;/font&gt;" style="text;html=1;align=center;verticalAlign=middle;resizable=0;points=[];autosize=1;strokeColor=none;fillColor=none;" vertex="1" parent="1">
          <mxGeometry x="455" y="190" width="50" height="30" as="geometry" />
        </mxCell>
        <mxCell id="1VvAbX1WwTx6JGBW-Ev7-39" value="&lt;font style=&quot;font-size: 8px;&quot;&gt;waiting&lt;/font&gt;" style="ellipse;shape=umlControl;whiteSpace=wrap;html=1;strokeColor=#FFE599;" vertex="1" parent="1">
          <mxGeometry x="425" y="160" width="30" height="30" as="geometry" />
        </mxCell>
        <mxCell id="1VvAbX1WwTx6JGBW-Ev7-40" value="&lt;font style=&quot;font-size: 8px;&quot;&gt;waiting&lt;/font&gt;" style="ellipse;shape=umlControl;whiteSpace=wrap;html=1;strokeColor=#FFD966;" vertex="1" parent="1">
          <mxGeometry x="385" y="160" width="30" height="30" as="geometry" />
        </mxCell>
        <mxCell id="1VvAbX1WwTx6JGBW-Ev7-41" value="" style="shape=singleArrow;whiteSpace=wrap;html=1;" vertex="1" parent="1">
          <mxGeometry x="540" y="110" width="70" height="20" as="geometry" />
        </mxCell>
        <mxCell id="1VvAbX1WwTx6JGBW-Ev7-54" value="" style="endArrow=classic;html=1;rounded=0;" edge="1" parent="1">
          <mxGeometry width="50" height="50" relative="1" as="geometry">
            <mxPoint x="680" y="80" as="sourcePoint" />
            <mxPoint x="679.6600000000001" y="160" as="targetPoint" />
          </mxGeometry>
        </mxCell>
        <mxCell id="1VvAbX1WwTx6JGBW-Ev7-55" value="" style="endArrow=classic;html=1;rounded=0;" edge="1" parent="1">
          <mxGeometry width="50" height="50" relative="1" as="geometry">
            <mxPoint x="720" y="80" as="sourcePoint" />
            <mxPoint x="719.6600000000001" y="160" as="targetPoint" />
          </mxGeometry>
        </mxCell>
        <mxCell id="1VvAbX1WwTx6JGBW-Ev7-56" value="" style="endArrow=classic;html=1;rounded=0;" edge="1" parent="1">
          <mxGeometry width="50" height="50" relative="1" as="geometry">
            <mxPoint x="760" y="80" as="sourcePoint" />
            <mxPoint x="760" y="160" as="targetPoint" />
          </mxGeometry>
        </mxCell>
        <mxCell id="1VvAbX1WwTx6JGBW-Ev7-57" value="req1" style="text;html=1;align=center;verticalAlign=middle;resizable=0;points=[];autosize=1;strokeColor=none;fillColor=none;" vertex="1" parent="1">
          <mxGeometry x="735" y="53" width="50" height="30" as="geometry" />
        </mxCell>
        <mxCell id="1VvAbX1WwTx6JGBW-Ev7-58" value="req2" style="text;html=1;align=center;verticalAlign=middle;resizable=0;points=[];autosize=1;strokeColor=none;fillColor=none;" vertex="1" parent="1">
          <mxGeometry x="695" y="54" width="50" height="30" as="geometry" />
        </mxCell>
        <mxCell id="1VvAbX1WwTx6JGBW-Ev7-59" value="req3" style="text;html=1;align=center;verticalAlign=middle;resizable=0;points=[];autosize=1;strokeColor=none;fillColor=none;" vertex="1" parent="1">
          <mxGeometry x="656" y="53" width="50" height="30" as="geometry" />
        </mxCell>
        <mxCell id="1VvAbX1WwTx6JGBW-Ev7-60" value="" style="endArrow=classic;html=1;rounded=0;exitX=0.833;exitY=0.033;exitDx=0;exitDy=0;exitPerimeter=0;strokeColor=#00994D;" edge="1" parent="1">
          <mxGeometry width="50" height="50" relative="1" as="geometry">
            <mxPoint x="759.96" y="161.98000000000002" as="sourcePoint" />
            <mxPoint x="760" y="260" as="targetPoint" />
          </mxGeometry>
        </mxCell>
        <mxCell id="1VvAbX1WwTx6JGBW-Ev7-61" value="" style="endArrow=none;html=1;rounded=0;" edge="1" parent="1">
          <mxGeometry width="50" height="50" relative="1" as="geometry">
            <mxPoint x="640" y="160" as="sourcePoint" />
            <mxPoint x="800" y="160" as="targetPoint" />
          </mxGeometry>
        </mxCell>
        <mxCell id="1VvAbX1WwTx6JGBW-Ev7-62" value="VR" style="text;html=1;align=center;verticalAlign=middle;resizable=0;points=[];autosize=1;strokeColor=none;fillColor=none;" vertex="1" parent="1">
          <mxGeometry x="620" y="160" width="40" height="30" as="geometry" />
        </mxCell>
        <mxCell id="1VvAbX1WwTx6JGBW-Ev7-67" value="search" style="shape=parallelogram;perimeter=parallelogramPerimeter;whiteSpace=wrap;html=1;fixedSize=1;fontSize=10;strokeColor=#00994D;" vertex="1" parent="1">
          <mxGeometry x="430" y="260" width="87.5" height="40" as="geometry" />
        </mxCell>
        <mxCell id="1VvAbX1WwTx6JGBW-Ev7-68" value="search" style="shape=parallelogram;perimeter=parallelogramPerimeter;whiteSpace=wrap;html=1;fixedSize=1;fontSize=10;strokeColor=#00994D;" vertex="1" parent="1">
          <mxGeometry x="720" y="260" width="80" height="40" as="geometry" />
        </mxCell>
        <mxCell id="1VvAbX1WwTx6JGBW-Ev7-69" value="" style="endArrow=classic;html=1;rounded=0;fontSize=10;strokeColor=#00994D;" edge="1" parent="1">
          <mxGeometry width="50" height="50" relative="1" as="geometry">
            <mxPoint x="750" y="260" as="sourcePoint" />
            <mxPoint x="750" y="160" as="targetPoint" />
          </mxGeometry>
        </mxCell>
        <mxCell id="1VvAbX1WwTx6JGBW-Ev7-70" value="&lt;font style=&quot;font-size: 10px;&quot;&gt;handle&lt;/font&gt;" style="text;html=1;align=center;verticalAlign=middle;resizable=0;points=[];autosize=1;strokeColor=none;fillColor=none;" vertex="1" parent="1">
          <mxGeometry x="755" y="205" width="50" height="30" as="geometry" />
        </mxCell>
        <mxCell id="1VvAbX1WwTx6JGBW-Ev7-71" value="complete" style="text;html=1;align=center;verticalAlign=middle;resizable=0;points=[];autosize=1;strokeColor=none;fillColor=none;fontSize=10;" vertex="1" parent="1">
          <mxGeometry x="695" y="205" width="60" height="30" as="geometry" />
        </mxCell>
        <mxCell id="1VvAbX1WwTx6JGBW-Ev7-73" value="" style="endArrow=classic;html=1;rounded=0;fontSize=10;strokeColor=#00994D;" edge="1" parent="1">
          <mxGeometry width="50" height="50" relative="1" as="geometry">
            <mxPoint x="670" y="160" as="sourcePoint" />
            <mxPoint x="670" y="80" as="targetPoint" />
          </mxGeometry>
        </mxCell>
        <mxCell id="1VvAbX1WwTx6JGBW-Ev7-75" value="res3" style="text;html=1;align=center;verticalAlign=middle;resizable=0;points=[];autosize=1;strokeColor=none;fillColor=none;fontSize=10;" vertex="1" parent="1">
          <mxGeometry x="640" y="105" width="40" height="30" as="geometry" />
        </mxCell>
        <mxCell id="1VvAbX1WwTx6JGBW-Ev7-77" value="" style="endArrow=classic;html=1;rounded=0;fontSize=10;strokeColor=#00994D;" edge="1" parent="1">
          <mxGeometry width="50" height="50" relative="1" as="geometry">
            <mxPoint x="710" y="160" as="sourcePoint" />
            <mxPoint x="710" y="80" as="targetPoint" />
          </mxGeometry>
        </mxCell>
        <mxCell id="1VvAbX1WwTx6JGBW-Ev7-78" value="res2" style="text;html=1;align=center;verticalAlign=middle;resizable=0;points=[];autosize=1;strokeColor=none;fillColor=none;fontSize=10;" vertex="1" parent="1">
          <mxGeometry x="680" y="105" width="40" height="30" as="geometry" />
        </mxCell>
        <mxCell id="1VvAbX1WwTx6JGBW-Ev7-80" value="" style="endArrow=classic;html=1;rounded=0;fontSize=10;strokeColor=#00994D;" edge="1" parent="1">
          <mxGeometry width="50" height="50" relative="1" as="geometry">
            <mxPoint x="749" y="160" as="sourcePoint" />
            <mxPoint x="750" y="80" as="targetPoint" />
          </mxGeometry>
        </mxCell>
        <mxCell id="1VvAbX1WwTx6JGBW-Ev7-81" value="res1" style="text;html=1;align=center;verticalAlign=middle;resizable=0;points=[];autosize=1;strokeColor=none;fillColor=none;fontSize=10;" vertex="1" parent="1">
          <mxGeometry x="720" y="105" width="40" height="30" as="geometry" />
        </mxCell>
        <mxCell id="1VvAbX1WwTx6JGBW-Ev7-82" value="a." style="text;html=1;align=center;verticalAlign=middle;resizable=0;points=[];autosize=1;strokeColor=none;fillColor=none;fontSize=10;" vertex="1" parent="1">
          <mxGeometry x="10" y="10" width="30" height="30" as="geometry" />
        </mxCell>
        <mxCell id="1VvAbX1WwTx6JGBW-Ev7-84" value="b.&lt;br&gt;" style="text;html=1;align=center;verticalAlign=middle;resizable=0;points=[];autosize=1;strokeColor=none;fillColor=none;fontSize=10;" vertex="1" parent="1">
          <mxGeometry x="330" y="10" width="30" height="30" as="geometry" />
        </mxCell>
        <mxCell id="1VvAbX1WwTx6JGBW-Ev7-85" value="c." style="text;html=1;align=center;verticalAlign=middle;resizable=0;points=[];autosize=1;strokeColor=none;fillColor=none;fontSize=10;" vertex="1" parent="1">
          <mxGeometry x="610" y="10" width="30" height="30" as="geometry" />
        </mxCell>
        <mxCell id="1VvAbX1WwTx6JGBW-Ev7-89" value="1.how to compete the lock?&lt;br&gt;&lt;div style=&quot;text-align: left;&quot;&gt;2.how to wait?&lt;/div&gt;&lt;div style=&quot;text-align: left;&quot;&gt;3.how to notify?&lt;/div&gt;" style="text;html=1;align=center;verticalAlign=middle;resizable=0;points=[];autosize=1;strokeColor=none;fillColor=none;fontSize=10;" vertex="1" parent="1">
          <mxGeometry x="80" y="329" width="140" height="48" as="geometry" />
        </mxCell>
      </root>
    </mxGraphModel>
  </diagram>
</mxfile>
